<?xml version="1.0" standalone="no"?>
<!DOCTYPE svg PUBLIC "-//W3C//DTD SVG 1.1//EN" "http://www.w3.org/Graphics/SVG/1.1/DTD/svg11.dtd" >
<svg xmlns="http://www.w3.org/2000/svg">
<metadata></metadata>
<defs>
<font id="bridgeiconsregular" horiz-adv-x="2048" >
<font-face units-per-em="2048" ascent="1638" descent="-410" />
<missing-glyph horiz-adv-x="500" />
<glyph horiz-adv-x="0" />
<glyph unicode="&#xd;" />
<glyph unicode="0" d="M58 1048q0 -16 10 -32q2 -4 8 -12q10 -14 28 -34q32 -38 94 -104q126 -134 306 -314q178 -178 314 -306q22 -20 40 -37t34 -31t30 -26q20 -18 32 -28q10 -6 14 -8q16 -10 32 -10t32 10q4 2 7 4t7 6q14 10 36 28q40 36 108 100q64 60 143 137t162 161t161 163t138 143 q66 68 100 108q18 22 28 34l6 9t4 7q10 16 10 32q0 6 -1 12t-2 9t-2 4t-2 3t-3 4q-2 4 -4 7t-6 7q-10 14 -28 36q-18 20 -43 47t-57 61q-60 64 -138 143t-160 163q-176 176 -306 298q-22 20 -41 38t-36 34t-31 28q-22 18 -36 28q-8 8 -14 10q-16 10 -32 10t-32 -10 q-6 -4 -14 -10q-14 -10 -36 -28q-40 -36 -108 -100q-126 -120 -306 -298q-178 -178 -298 -306q-16 -16 -30 -31t-26 -28t-23 -25t-21 -24q-4 -4 -8 -9l-8 -10t-7 -9t-5 -8q-6 -8 -10 -14q-2 0 -4 -3t-3 -5t-2 -9t-1 -15z" />
<glyph unicode="1" d="M154 1048q0 230 113 425t308 308t425 113t425 -113t308 -308t113 -425t-113 -425t-308 -308t-425 -113t-425 113t-308 308t-113 425z" />
<glyph unicode="2" d="M86 1840l38 -66l418 -726l420 -726l38 -66l38 66l420 726l418 726l38 66h-76h-838h-838h-76z" />
<glyph unicode="A" d="M398 606q78 -54 172 -56q78 0 140 46q30 26 40 61t10 71q0 58 -34 90q-34 30 -86 44l-32 10q-18 4 -36 16q-20 10 -22 30q2 22 20 32q16 10 36 10q48 -2 84 -32l50 98q-72 40 -154 40q-74 0 -120 -44q-48 -44 -48 -120q0 -34 10 -58t27 -38t43 -24q24 -10 52 -18 q24 -6 50 -18q12 -6 20 -15t8 -23q0 -26 -20 -38q-18 -12 -42 -12q-32 0 -60 16q-28 14 -54 34zM634 1674q26 -28 84 -100t90 -106v-26h-24v-48h24q2 -110 4 -122q0 -62 55 -107t137 -45t140 45t58 107q-4 22 -3 61t-1 61h28v48h-28v30q34 36 94 111t74 89zM782 946h106 v-382h128v382h104v96l174 -244v-234h128v234l180 254h-154l-90 -132l-92 132h-146h-8h-330v-106zM868 1345q0 13 2 25l4 24l272 -2q3 -63 3 -96q0 -17 -1 -26q0 -36 -40 -61t-98 -25q-56 0 -94 24t-42 58q0 10 -2 27t-3 28t-1 24zM936 1466v144h170v-146z" />
<glyph unicode="B" d="M528 956h134v-404h138v166h402v-166h138v404h132v440h-944v-440zM684 1086l32 170h130l-32 -170h-130zM800 806v150h402v-150h-402zM918 1086l32 170h130l-32 -170h-130zM1154 1086l32 170h130l-32 -170h-130z" />
<glyph unicode="C" d="M470 630q2 -158 2 -160l148 -4q0 2 -2 166q0 46 2 84v26q34 70 92 120q42 36 72 46h6t17 -1t21 -3q32 -6 48 -14q18 -10 48 -18q56 -3 94 -3t58 3q32 8 48 18q16 8 48 14q10 2 21 3t17 1h6q30 -10 72 -46q58 -50 92 -120v-26q1 -10 1 -31t-1 -53v-166l148 4v35t1 62t1 63 v92q-2 20 -2 36q-4 24 -10 40q-48 104 -132 178q-74 62 -138 78q-28 6 -56 4q-14 -2 -50 -8q-56 -12 -86 -28q-8 -2 -14 -4q-28 -6 -38 -8h-3h-2h-1h-2q-12 2 -38 8l-12 4h-4q-30 16 -84 28q-36 6 -50 8h-14h-14l-28 -4q-64 -16 -138 -78q-84 -74 -132 -178q-6 -16 -10 -40 q0 -16 -2 -36v-92zM586 1488q0 -38 14 -70t39 -56t57 -38q18 -60 48 -110t68 -86t86 -57t100 -21q112 0 188 84t86 186q12 134 12 140q0 30 -5 61t-15 65t-33 56q-21 20 -50 20h-5l-370 -6q-22 6 -44 6q-20 0 -44 -6h-4q-56 -18 -92 -64t-36 -104zM672 1486q0 40 28 68 t68 28q26 0 48 -13t35 -35t13 -48q0 -40 -28 -68t-68 -28q-26 0 -48 13t-35 35t-13 48zM1028 1420v36q0 14 14 14h182q14 0 14 -14v-36q0 -14 -14 -14h-182q-14 0 -14 14z" />
<glyph unicode="D" d="M666 552h364q214 4 356 146q146 136 148 350q-2 214 -148 354q-142 138 -356 142h-364v-992zM924 770v556h60q126 -2 204 -72q76 -70 78 -206q-2 -144 -84 -210q-82 -68 -200 -68h-58z" />
<glyph unicode="E" d="M408 726h74v4q0 36 14 68t38 56t56 38t68 14q74 0 126 -52t52 -124v-2h216v2q0 72 52 124t125 52t124 -52t51 -124h188v324l-220 448h-924zM524 730q0 -56 40 -96t96 -40t95 40t39 96t-39 95t-95 39t-96 -39t-40 -95zM708 1132v110h134v140h132v-140h130v-110h-130v-140 h-132v140h-134zM1096 730q0 -56 40 -96t96 -40t95 40t39 96t-39 95t-95 39t-96 -39t-40 -95zM1234 1068l4 330h104l156 -330h-264z" />
<glyph unicode="F" d="M534 500h932v434q0 44 -31 75t-75 31h-720h-4h-3h-3q-40 -4 -68 -35t-28 -71v-434zM646 1252q0 -50 8 -64q22 -34 66 -48q15 -5 67 -5h18h12q56 0 59 -9q28 -26 48 -34q16 -6 76 -6t76 6q18 8 48 34q8 8 37 9t65 1t52 4q46 14 68 48q8 14 8 64t-6 68q-4 12 -11 23t-17 21 t-20 18t-25 16t-25 13t-25 13t-23 10q-8 4 -15 19t-13 37t-12 30q-2 6 -6 14q-20 42 -32 65t-35 52t-49 45q-4 2 -24 4h-18h-16q-18 -2 -24 -4q-26 -16 -49 -45t-35 -51t-32 -66q-4 -8 -6 -14q-4 -8 -9 -23l-9 -27t-10 -22t-12 -13l-26 -13l-30 -15t-28 -16t-27 -21t-19 -23 t-14 -27q-6 -18 -6 -68zM882 1204v148q46 -38 120 -38q90 0 132 50v-162q-44 -68 -124 -68q-84 0 -128 70zM966 1410v212q0 6 6 6h64q6 0 6 -6v-212q0 -8 -6 -8h-64q-6 0 -6 8z" />
<glyph unicode="G" d="M382 1134q0 -10 7 -18t19 -8q2 0 5 1t5 1l46 20l28 -72l-38 -16q-16 -6 -16 -24q0 -10 8 -18t18 -8q2 0 5 1t5 1l1016 398q6 2 11 9t5 15q0 10 -7 18t-19 8q-4 0 -10 -2l-70 -28l-28 72l62 24q16 6 16 24q0 8 -3 14t-9 9t-14 3q-4 0 -8 -2l-1018 -396q-16 -8 -16 -26z M450 684h94q2 60 46 102t104 42t103 -42t47 -102h352q4 60 47 102t104 42t104 -42t47 -102h104v264q-2 36 -6 40l-186 256q-32 2 -64 2v6q0 14 -12 25t-29 11t-29 -11t-12 -25q0 -2 1 -3l1 -1q-12 0 -41 -1t-47 -1v-298h-476q0 32 -15 50t-57 20q-88 0 -88 -70h-92v-264z M504 1144l104 40l28 -70l-104 -42zM580 668q0 -22 9 -44t25 -37t37 -24t45 -9q48 0 81 33t33 81t-33 82t-81 34t-82 -34t-34 -82zM646 1200l106 42l28 -72l-106 -42zM792 1258l106 40l26 -72l-104 -40zM936 1314l106 42l28 -72l-106 -42zM1082 1370l106 42l26 -72l-104 -42z M1226 1428l106 40l28 -72l-106 -40zM1240 668q0 -30 15 -55t40 -40t55 -15q46 0 78 33t32 78t-32 77t-78 32q-30 0 -55 -15t-40 -40t-15 -55zM1306 1016v182h76l114 -182h-190z" />
<glyph unicode="H" d="M546 476h450l-280 586h-82q-38 0 -63 -25t-25 -61v-500zM658 1620q24 -24 76 -91t84 -97v-24h-22v-44h22q0 -100 2 -110q0 -38 23 -70t63 -51t90 -19q30 0 57 7t50 20t39 30t26 38t10 45q-4 18 -3 54t-1 56h26v44h-26v28q32 34 86 102t66 82h-668zM836 1062l280 -586h330 v500q0 18 -7 34t-18 28t-28 18t-35 6h-522zM873 1310q0 6 -0.5 13t0.5 14q1 15 5 27l248 -2q3 -57 3 -88q0 -15 -1 -24q0 -20 -16 -38t-45 -29t-65 -11q-52 0 -86 22t-38 52q0 12 -2 32t-3 32zM934 1432v132h156v-134z" />
<glyph unicode="I" d="M348 802h102v11q0 33 10 61q14 44 53 73t85 31q30 2 59 -8t52 -30t35 -46q18 -34 18 -72v-20h438v10q0 62 45 107t107 45q32 0 60 -12t48 -33t32 -49t12 -58v-6v-4h172v294l-56 48l-316 30l-176 220l-60 2l-16 5t-16 7q0 94 -62 98l-24 2q-58 -10 -58 -102q0 -2 -10 -5 t-10 -5l-186 -2l-194 -194l-138 -2zM478 810q0 -34 17 -64t47 -47t64 -17q54 0 92 38t38 91t-38 91t-92 38t-91 -38t-37 -92zM574 1174l144 154l126 6v-162zM912 858v250h242v-250h-242zM912 1170v164h196l132 -166zM1226 804q0 -34 17 -64t47 -47t64 -17q54 0 92 38t38 91 t-38 91t-91 38t-91 -38t-38 -92z" />
<glyph unicode="J" d="M438 680l282 486l280 486l280 -486l282 -486h-562h-562z" />
<glyph unicode="K" d="M468 1020h272v270h-272v-270zM754 478h492v330q0 56 -39 95t-95 39h-224q-56 0 -95 -39t-39 -95v-330zM866 1112q0 -38 17 -70t47 -51t66 -19q52 0 90 41t38 100t-38 100t-91 41t-91 -41t-38 -101zM866 1346h270v272h-270v-272zM1260 1024h272v270h-272v-270z" />
<glyph unicode="L" d="M34 1884l40 -70l442 -766l444 -766l40 -70l40 70l444 766l442 766l40 70h-80h-886h-886h-80zM194 1792h806h806l-404 -698l-402 -696l-402 696l-2 2z" />
<glyph unicode="M" d="M507 1330q1 -18 10 -30t23 -14h22h22v14q0 46 32 78t78 32q30 0 55 -15t40 -40t15 -55v-7v-7q148 2 382 2v12q0 46 32 78t78 32q30 0 55 -15t40 -40t15 -55q0 -6 -2 -10h14h19h9q26 0 39 39q10 30 10 61q0 10 -1 20q-4 42 -16 52q-46 36 -125 86t-123 72q-46 24 -152 24 h-12q-70 0 -110 -16q-78 -28 -180 -128q-148 -2 -170 -4q-20 -4 -43 -18t-37 -40q-8 -12 -13 -30t-6 -39v-20v-19zM598 1298q0 -38 28 -66t67 -28t67 28t28 67t-28 67t-68 28q-26 0 -48 -13t-34 -35t-12 -48zM646 1298q0 10 3 19t10 15t15 10t18 4q20 0 34 -14t14 -34 t-14 -33t-34 -13t-33 13t-13 33zM864 1500q90 82 130 94q34 8 80 10h16q18 0 34 -1t33 -4t29 -7q6 -2 15 -7t20 -11t22 -14t22 -15t22 -15t20 -14t16 -11t11 -9l2 -2zM1200 1298q0 -38 28 -66t68 -28q26 0 48 13t34 34t12 47t-12 48t-34 35t-48 13q-12 0 -22 -3t-20 -7 t-18 -11t-15 -15t-11 -17t-7 -20t-3 -23zM1248 1298q0 10 4 19t10 15t15 10t19 4q20 0 33 -14t13 -34t-13 -33t-33 -13t-34 13t-14 33z" />
<glyph unicode="N" d="M690 1130q0 -120 85 -205t207 -85q58 0 112 23t93 62t62 93t23 112q0 86 -45 156t-121 106v96q0 8 -4 15t-11 11t-15 4h-4l2 2l6 2t14 3t16 1h30q12 -2 15 4t5 24v6q4 32 -12 32h-5t-11 1t-16 1h-8q-48 -2 -72 -20q-12 -6 -20 -16t-16 -22q-8 -10 -12 -18h-32h-2 q-8 0 -14 -5t-10 -11t-4 -14v-72q-102 -20 -169 -100t-67 -186zM986 1422v36h60v-44q-30 6 -60 8zM988 1272q0 12 8 22t20 12h2h2h4q40 -2 75 -23t54 -57q17 -33 17 -68v-8l-2 -12q0 -8 -5 -14t-12 -10q-5 -3 -10 -3q-3 0 -5 1q-12 0 -20 11t-8 23l2 6q0 38 -25 65t-63 29 q-8 -2 -15 2t-12 11t-7 13zM1158 1504q0 -2 1 -6t3 -8l60 -80q8 -10 20 -10q6 0 11 3t8 8t3 11q0 4 -1 8t-5 6l-60 82q-6 10 -18 10q-10 -2 -16 -8t-6 -16zM1170 1606q0 -6 1 -10t5 -7t8 -5t8 -2t8 2l8 4l58 52q8 8 8 18q-4 20 -22 22h-2h-2t-6 -2l-8 -4l-58 -52 q-2 -2 -4 -7t-2 -9zM1200 1552q0 -6 3 -11t8 -8t13 -3h118q24 0 24 22q-4 20 -22 24h-2h-118h-2q-22 -2 -22 -24z" />
<glyph unicode="O" d="M690 1494q2 -12 16 -14l32 -8l158 -158l12 16l10 10l-160 162q-2 2 1 6t6 9l3 5l74 72q0 -2 4 0l8 4t6 2l148 -150l8 8l20 14l-148 148l-4 26q-6 14 -22 16h-4l-12 -6l-150 -142q-7 -6 -7 -13q0 -4 1 -7zM731 973q9 -33 35 -37q10 -2 46 -3t84 -2t103 -1h103t84 2t48 4 q26 6 40 44q8 22 8 41q0 13 -4 25q-10 26 -29 61t-40 66t-40 59t-31 44l-14 16l-24 -2v-82h-198v62l-20 -2l-40 -45t-65 -85t-45 -86q-5 -24 -5 -45q0 -18 4 -34zM1034 1352l264 94l-68 76l82 98l-184 -104l58 -52z" />
<glyph unicode="P" d="M438 1752l194 -222q87 -110 107 -110q6 0 5 12q-4 32 -62 148l-90 174l-46 -8zM634 1762l86 -162l20 -36t18 -33t17 -28t15 -23t12 -17t9 -11t5 -2t2 11q0 38 -34 203l-20 98h-130zM645 1112q9 -68 65 -110q38 -28 83 -33q11 -1 21 -1q34 0 66 12q42 16 70 52l-22 22 t-24 25t-22 23t-23 24t-20 23t-22 26t-19 25t-19 27t-16 26t-17 31q-40 -18 -66 -50q-37 -45 -37 -99q0 -11 2 -23zM826 1580h34h36l4 -64q0 -4 1 -4q4 0 27 90l38 160h-70v-40h-36h-34v-72v-70zM892 1150h56h56v36q0 14 -10 24t-24 10q-34 0 -56 -34zM1000 1416 q30 18 76 126l44 108h32h32v-42v-42l110 106q44 42 86 90h-70l-84 -116l-22 36l-24 38l22 42h-76q-18 -42 -32 -74q-98 -231 -98 -266q0 -6 3 -6h1zM1004 1040q-1 0 -1 -1q0 -3 23 -19l156 -102l136 -84l46 82l-116 42q-224 82 -244 82zM1022 1284l298 224l300 222l-32 32 h-96l-210 -216zM1130 1174l178 -24q141 -20 141 -29q0 -1 -1 -1l-4 -2l-46 -4v-36v-36h38l76 136l-168 -2zM1166 1040l160 -50q34 -10 70 -20l20 38l-90 12zM1184 1270v-1q0 -5 24 -5q40 0 120 12q154 22 260 38l40 72l-76 -18q-350 -80 -368 -98zM1238 1356l78 40l80 42 l96 -24l96 -24l-20 56l-22 56l108 38l74 26l20 34l-10 16l-24 38l-202 -114q-204 -112 -240 -148zM1488 1250l54 -18l10 18h-64z" />
<glyph unicode="Q" d="M692 1098q0 16 1 28t3 21t7 20t8 17l9 18l10 20q6 6 14 13t23 25t15 30q2 8 -2 20t-9 23t-10 21t-7 16l-4 6l-34 72q50 -20 70 -38q62 -55 73 -55q3 0 3 3q0 16 -40 94q0 2 -1 5t-5 13t-6 19t-4 19t0 18q0 12 8 27t16 25l6 10q30 44 86 84q24 18 28 14q-2 -10 -10 -41 t-10 -41q-4 -20 9 -56t39 -60l70 -60l-14 62l-4 56q2 8 3 16t3 16t5 15l6 14t7 14t10 13q20 24 84 56q-2 -10 -10 -32t-14 -43t-6 -35q0 -12 4 -31t13 -40t23 -31q15 -12 15 -52q0 -12 -1 -26l-9 -43t-5 -63l30 74q6 14 13 32t11 29t4 15q43 -33 43 -112q0 -21 -3 -44 q-8 -57 -8 -76v-6q4 -18 12 -34t19 -29t13 -19l1 -1l3 -3t3 -5t4 -7t3 -9t1 -13t1 -14q-2 -24 -9 -43t-11 -27l-6 -8q-8 -26 -23 -48t-37 -39t-49 -31t-57 -23t-64 -15l-74 2l-88 22q-74 18 -136 98t-62 138zM828 1029q2 -21 14 -39t32 -30q58 -34 113 -34q46 0 91 24l44 18 q4 2 13 6t12 6t9 7t8 9t4 11t4 17l6 60l-96 -52l-26 44l-10 40q-16 60 -42 86l-58 66l14 -64q8 -32 -5 -57t-41 -59l-58 -62l14 66l14 68l-28 -40q-16 -22 -23 -46q-5 -19 -5 -36v-9z" />
<glyph unicode="R" d="M214 1766l306 -38q26 -16 26 -82v-66l76 -88l76 -90l22 -162l20 -162l-20 -80l-20 -82l166 -198l202 -270l-84 -78q-84 128 -259 443t-297 545t-214 408zM578 1652v48v48h48h48v-48v-48h-48h-48zM684 1597q4 17 29 20q4 1 10 1q24 0 65 -12l84 -20l-14 -40l-12 -38 l-66 -10l-64 -10l-22 54q-11 30 -11 46q0 5 1 9zM770 980v50v50l54 -10l54 -10l14 -40l12 -40h-66h-68zM840 1305q-1 6 -1 13q0 37 37 84l40 50l68 16l70 16l70 -72l68 -74l-10 -108l-10 -106l-88 -10l-88 -10l-80 86q-68 74 -76 115zM888 886l52 52l54 52l66 -60l66 -60 l-10 -66l-8 -66l-72 -10l-72 -10l-38 84z" />
<glyph unicode="a" d="M208 601q-5 -26 -5 -50q0 -29 7 -56q12 -49 48 -49h21h28h25v10v10q0 74 52 127t126 53q20 0 40 -5t38 -14t33 -21t27 -28t21 -33t14 -37t5 -42v-11t-2 -9q240 0 620 2v18q0 74 52 127t126 53q22 0 42 -5t37 -14t33 -21t28 -28t21 -33t13 -37t4 -42v-16h8h13h15h15h11h4 q44 0 64 63q16 50 16 104q0 13 -1 27q-5 68 -27 84q-74 62 -202 141t-198 117q-74 38 -248 40q-6 0 -20 -2q-52 0 -98 -6t-80 -18q-20 -8 -43 -20t-45 -26t-44 -30t-41 -31t-38 -31t-33 -29t-25 -22t-15 -15l-6 -6h-27t-60 -1t-78 -1t-69 -2t-44 -2q-32 -6 -69 -29t-61 -65 q-18 -32 -28 -89zM352 464q0 -64 46 -109t109 -45t109 45t46 109q0 32 -13 60t-33 49t-49 33t-59 12q-64 0 -110 -45t-46 -109zM430 464q0 32 22 55t55 23t55 -23t22 -55t-22 -54t-55 -22t-55 22t-22 54zM786 790q2 2 8 7t22 20t32 28t38 30t41 30t38 24t33 15q52 14 128 16 h24q44 0 85 -6t73 -16q28 -8 89 -48t107 -74l48 -36zM1330 464q0 -64 46 -109t109 -45t109 45t46 109q0 42 -21 78t-57 56t-78 20q-62 0 -108 -45t-46 -109zM1408 464q0 32 22 55t54 23t55 -23t23 -55t-23 -54t-55 -22t-54 22t-22 54z" />
<glyph unicode="c" d="M418 1031q-3 -18 -3 -34q0 -22 5 -41q8 -34 34 -36h26h26v8v8q0 34 17 63t46 46t63 17q20 0 40 -6t35 -18t27 -27t18 -35t6 -40v-16q170 2 440 2v14q0 52 37 89t89 37q12 0 25 -2t24 -7t21 -12t19 -15t16 -19t12 -22t7 -23t2 -26v-12h14h22h12q30 0 44 45q11 35 11 72 q0 11 -1 21q-4 48 -18 60q-28 22 -70 51t-83 54t-76 46t-55 31q-54 26 -176 28h-14q-24 0 -46 -2t-43 -6t-37 -10q-26 -10 -56 -28t-56 -38t-48 -39t-34 -31l-12 -12q-172 -2 -198 -6q-14 -2 -30 -8t-33 -21t-29 -35q-14 -24 -20 -65zM520 935q0 -45 33 -78t78 -33t77 33 t32 78t-32 77t-77 32t-78 -32t-33 -77zM576 934q0 24 16 40t38 16q10 0 18 -3t15 -8t12 -12t8 -15t3 -18q0 -14 -8 -27t-20 -20t-28 -7q-8 0 -17 3t-15 8t-11 11t-8 15t-3 17zM828 1166q4 4 11 10t28 23t39 31t38 27t34 17q38 10 92 12h16q68 0 112 -16q8 -2 18 -7t22 -12 t25 -16t26 -17t25 -17t22 -17t18 -14t14 -8l4 -4q-518 8 -544 8zM1214 934q0 -10 2 -21t7 -21t11 -19t13 -16t16 -13t19 -10t20 -7t22 -3q46 0 78 33t32 78t-32 77t-78 32t-78 -32t-32 -78zM1270 935q0 9 2 17t7 15t12 12t15 8t18 3q12 0 22 -5t17 -12t11 -17t4 -22 q0 -8 -2 -17t-7 -15t-12 -11t-16 -8t-18 -3t-17 3t-15 8t-12 11t-7 15t-2 18z" />
<glyph unicode="d" d="M612 900q0 -138 98 -236t236 -98t236 98t98 236q0 98 -52 178t-138 122v110q0 14 -10 24t-24 10h-6l2 2q10 6 42 8l34 -2q18 -2 22 20v8v6q4 16 2 29t-16 15h-36h-8q-56 -2 -84 -20q-20 -14 -42 -46q-8 -10 -12 -20h-36h-4q-12 -2 -21 -12t-9 -22v-84q-118 -22 -195 -114 t-77 -212zM952 1232v44h70v-52q-36 8 -70 8zM955 1066q0 12 8 22q9 12 23 12h2h2h2h2q72 -2 122 -54q46 -48 46 -113v-11v-14q-2 -14 -14 -23q-10 -7 -20 -7h-5q-13 2 -22 13t-9 25q2 6 2 8q0 28 -13 53t-36 39t-53 16q-14 -2 -25 8q-12 11 -12 26zM1148 1328q0 -8 6 -16 l68 -92q4 -6 10 -9t12 -3q12 0 19 8t7 18t-6 16l-68 94q-8 10 -22 10q-10 0 -18 -7t-8 -19zM1162 1444q0 -6 2 -10t6 -8t8 -6t10 -2q10 0 18 6l66 60q10 8 10 20q0 8 -4 14t-10 9t-12 3h-2q-10 0 -16 -6l-68 -60q-8 -8 -8 -20zM1198 1384q0 -10 7 -18t19 -8h136h2q10 0 18 8 t8 18t-8 18t-18 8h-2h-136h-1h-1q-24 -2 -24 -26z" />
<glyph unicode="e" d="M626 1307q0 -5 1 -9t4 -8t7 -6t10 -4l38 -10l190 -190l14 22l10 10l-190 196q-2 0 2 6t7 11t1 5l90 88q2 -2 6 0t9 4l5 2l180 -178l10 8l22 18l-176 178l-6 30q-6 18 -24 20h-6q-8 -2 -16 -8l-180 -170q-2 -4 -5 -7t-3 -8zM673 699q1 -29 13 -48t34 -23q44 -6 279 -7h50 q190 0 231 7q32 8 49 53q10 26 10 49q0 16 -5 30q-8 18 -18 40t-22 43t-26 43t-28 43t-27 40t-25 35t-20 28t-14 18l-4 6l-30 -2v-100h-238v74l-24 -2q-20 -20 -48 -53t-77 -102t-55 -103q-5 -34 -5 -60v-9zM1040 1128l318 112l-82 90l98 118l-220 -124l70 -64z" />
<glyph unicode="f" d="M518 1296l88 -108q75 -95 91 -95q4 0 4 7q0 3 -1 8q-6 30 -52 122l-66 128l-32 -30zM608 1384l72 -136q12 -22 24 -43t21 -37t17 -28t13 -17t7 -5q2 2 2 10q0 33 -28 174l-36 176l-46 -46zM616 830q8 -58 56 -94q24 -18 52 -25t56 -3t54 17t44 37q-4 2 -20 19t-20 21 l-19 19t-20 21t-17 20t-18 22t-16 21t-17 23t-14 23t-13 25q-12 -4 -22 -11t-19 -15t-17 -16q-31 -38 -31 -84q0 -10 1 -20zM770 1230h30h32l2 -54q0 -4 1 -4q5 0 23 76q78 308 94 444v8l2 28l-62 -56l-60 -54v-134v-132h-32h-30v-62v-60zM828 862h48h48v30q0 14 -9 22 t-21 8t-26 -8t-22 -22zM920 1090q26 16 64 108l38 92h28h26v-36v-36l94 90q96 90 124 144l30 52h-28q-10 0 -41 -32t-63 -76l-78 -110l-20 32l-20 32l64 126l66 126l-20 18q-18 20 -90 30l-72 8l-20 -50l-18 -52l16 -16l16 -16l44 60l44 58l2 -36q0 -14 -31 -98t-75 -186 q-84 -200 -84 -228q0 -5 2 -5q1 0 2 1zM924 768q-1 0 -1 -1q0 -2 19 -15q42 -30 134 -88l168 -104l40 34l42 34l-194 70q-192 70 -208 70zM938 976l256 192l256 190l-34 34l-36 34l-220 -224zM1030 882l154 -20q119 -17 119 -23q0 -1 -1 -1q0 -2 -4 -2l-38 -4v-32v-30h78h78 l-18 30l-20 32l86 2l86 4l-76 24l-76 24l-184 -2zM1060 768l138 -42q138 -42 168 -44l28 -4l-28 28l-30 28l-138 16zM1078 966q-1 -1 -1 -2q0 -4 19 -4q36 0 104 10q494 72 512 90l18 16l-22 20l-20 22l-298 -70q-298 -68 -312 -82zM1122 1038l68 36l68 34l82 -20l82 -22 l-18 50l-18 48l92 32l92 32l-20 32l-20 34l-174 -98q-22 -12 -46 -26t-45 -27t-40 -24t-33 -21t-25 -17t-15 -13zM1336 948l76 -26q78 -24 130 -26l52 -4l18 30l18 32l-146 -4z" />
<glyph unicode="g" d="M658 864q0 14 1 26t3 22t4 18t7 18l8 16l9 18l10 20q6 4 15 13t25 29t18 34t-8 37t-18 41l-10 18l-38 80q56 -22 78 -42q69 -62 82 -62q3 0 3 4q0 18 -45 104l-5 15t-9 31t-4 36q0 8 4 18t9 18l10 16t7 12l4 4q32 50 96 94q26 18 32 16q-4 -10 -8 -29t-9 -36t-7 -27 q-2 -8 0 -25t8 -34t18 -36t26 -33l80 -68l-16 68l-4 64q4 30 12 55t24 43l96 62l-12 -36t-15 -47t-7 -41q-2 -20 10 -59t34 -53q16 -13 16 -53q0 -15 -2 -33q0 -2 -9 -49q-7 -38 -7 -62v-9l34 84q22 52 32 84q14 -12 23 -24t18 -52q5 -24 5 -54q0 -20 -2 -42q-8 -65 -8 -86 v-6q4 -20 13 -38t21 -33t16 -21q2 -2 5 -6t8 -19q4 -11 4 -23q0 -5 -1 -10q-2 -26 -9 -48t-13 -30l-6 -8q-20 -70 -89 -114t-167 -60l-82 2l-98 24q-54 14 -107 62t-83 104t-30 98zM809 786q5 -50 49 -76q26 -14 55 -23t58 -11h15q22 0 44 4q30 6 56 20l48 18q6 2 14 6t11 6 l9 6t9 8t6 9t5 12t2 17l8 66l-106 -58l-30 48l-12 46q-6 22 -11 37t-14 31t-19 28l-68 72l18 -70q6 -26 -2 -51t-18 -39t-32 -40l-64 -70l16 76l16 74l-32 -46q-32 -44 -32 -88q0 -6 1 -12z" />
<glyph unicode="h" d="M116 1050l270 270l270 270l26 -16q26 -16 26 -82v-64l76 -90l76 -90l20 -162l22 -162l-20 -80l-20 -82l164 -196l166 -198l-88 -92q-36 -38 -67 -65t-39 -27q-18 0 -450 432zM740 1498v48v48h48h48v-48v-48h-48h-48zM854 1458q8 6 26 6q25 0 70 -12l84 -20l-14 -40 l-12 -38l-66 -10l-66 -10l-20 54q-12 29 -12 47q0 16 10 23zM932 826v50v50l54 -10l54 -10l12 -40l14 -40h-66h-68zM1001 1181q5 29 35 67l40 50l70 16l70 16l68 -72l70 -74l-10 -106l-12 -108l-86 -10l-88 -10l-80 86q-48 50 -65 83q-13 26 -13 49q0 6 1 13zM1050 732 l52 52l52 54l68 -62l66 -60l-10 -66l-10 -64l-70 -12l-72 -10l-38 84z" />
<glyph unicode="i" d="M54 1035q0 -5 2 -8t3 -5t2 -3t1 -3l10 -14q4 -4 8 -9t9 -11t11 -12q12 -14 26 -30t31 -35t37 -39q128 -136 308 -316q178 -180 314 -308q66 -62 104 -94q20 -18 34 -28l14 -10q16 -8 32 -8t32 8q4 4 7 6t7 6q4 2 7 4t6 5t7 6l8 6t8 7q40 36 108 100q64 60 144 138 t164 162l41 41l41 41l40 40t39 40t37 39t36 37t34 35t32 33q32 34 57 61t43 47q18 24 28 36q2 4 4 6t4 5t4 5l2 2q6 10 6 30q0 16 -8 32q-4 6 -12 14q-2 6 -7 12l-10 12t-11 12q-36 40 -100 108q-40 44 -89 94t-102 104t-109 110q-84 84 -163 162t-143 138q-68 64 -108 100 q-12 8 -21 16t-15 12l-9 6t-7 6q-20 8 -32 8q-8 0 -14 -1t-9 -2t-5 -3t-4 -2q-4 -4 -7 -6t-7 -6q-14 -10 -36 -28q-42 -36 -108 -100q-128 -120 -308 -300q-178 -178 -300 -306q-64 -68 -100 -108q-8 -12 -16 -21t-12 -15q-4 -4 -6 -8t-6 -8q-8 -16 -8 -32v-13zM150 1028 l4 4zM150 1070q2 0 4 -6q-4 4 -4 6zM166 1048l14 16q16 20 41 46t55 60q24 24 51 53t57 59t61 62t64 65l65 65q176 176 306 298q66 64 104 96q4 4 12 10l4 4l4 -4l12 -10q14 -12 30 -26t35 -32t40 -38t45 -42t48 -46l50 -50t53 -52t54 -53l55 -55q180 -180 298 -306 q62 -64 96 -104q4 -6 10 -12l4 -4l-5 -6t-9 -10q-6 -8 -14 -17t-17 -19t-20 -21t-22 -23t-23 -26q-122 -128 -298 -304q-178 -178 -306 -298q-66 -64 -104 -96q0 -2 -16 -14l-4 4q-6 4 -8 6q-38 34 -102 92q-134 128 -312 306t-306 314q-58 62 -92 100q-2 4 -5 8t-5 4z M980 198l4 4zM980 1898l4 -4zM1016 202q4 -2 4 -4zM1016 1894l4 4zM1846 1032l4 -4zM1846 1064l4 4z" />
<glyph unicode="j" d="M174 978h82h84v-70v-72h16q18 2 220 104l200 104l-194 98q-82 40 -146 69t-74 29h-22v-60v-60h-84h-82v-70v-72zM766 386h70h72v-96v-74h142v74v96h70h72l-100 202q-98 198 -112 200q-14 0 -114 -200zM790 1678q0 -6 28 -67t70 -141l98 -194l100 200l102 202l-70 8l-68 6 v94v94h-70h-72v-96v-94h-60q-58 0 -58 -12zM1264 1050q0 -14 202 -114l200 -100v72v70h84h76v142h-76h-84v72v70l-200 -100q-84 -42 -143 -75t-59 -37z" />
<glyph unicode="k" d="M192 1036h210l2 -88l94 56l96 58l-96 54l-98 54v-88h-208v-46zM612 838h50v2q0 48 34 82t81 34t81 -34t34 -82v-2l142 2q0 32 15 58t42 42t57 16q48 0 82 -34t34 -82h124v212l-144 292h-604zM690 840q0 -24 11 -44t32 -32t45 -12q36 0 62 26t26 62q0 24 -12 44t-32 32 t-44 12q-38 0 -63 -26t-25 -62zM808 1102v72h88v92h86v-92h86v-72h-86v-90h-86v90h-88zM888 432l88 2v-210h46v210l90 2l-58 96l-56 96l-56 -98zM888 1660l58 -96l56 -96l56 98l54 98l-88 -2v210h-46v-210zM1062 840q0 -36 26 -62t63 -26t63 26t26 62t-26 62t-64 26 q-18 0 -34 -7t-28 -19t-19 -28t-7 -34zM1154 1060l2 216h66l104 -216h-172zM1406 1056l96 -54l98 -54v88h208v46h-210l-2 88l-94 -58z" />
<glyph unicode="l" d="M192 1036h210l2 -88l94 56l96 58l-96 54l-98 54v-88h-208v-46zM594 1144q0 -18 16 -18l6 2l32 12l18 -48l-26 -8q-10 -6 -10 -16q0 -18 18 -18l6 2l664 260q10 4 10 16q0 16 -16 16h-2q-2 0 -6 -2l-46 -18l-18 48l40 16q6 2 9 6t3 10q0 16 -18 16h-6l-664 -260 q-10 -4 -10 -16zM638 850h60q2 38 31 65t68 27t68 -27t31 -65h230q2 38 30 65t68 27t68 -27t30 -65h68v172q-2 22 -4 26l-122 168h-42l1 2l1 2q0 6 -4 12t-10 9t-14 3h-2q-10 0 -17 -7t-7 -17v-1v-3h-25h-31v-194h-310q0 20 -10 32t-38 12h-5q-53 0 -53 -44h-60v-172z M674 1150l66 26l20 -46l-68 -26zM724 838q0 -14 6 -28t16 -24t24 -16t29 -6t29 6t24 16t16 24t6 28q0 32 -22 54t-53 22t-53 -22t-22 -54zM766 1186l70 28l18 -48l-70 -26zM862 1224l68 26l18 -46l-68 -28zM888 432l88 2v-210h46v210l90 2l-58 96l-56 96l-56 -98zM888 1660 l58 -96l56 -96l56 98l54 98l-88 -2v210h-46v-210zM956 1260l68 28l20 -48l-70 -26zM1050 1298l70 26l18 -46l-70 -28zM1146 1334l68 28l18 -48l-68 -26zM1154 838q0 -14 6 -27t15 -23t23 -15t28 -5t27 5t23 15t16 23t6 27q0 30 -21 51t-51 21t-51 -21t-21 -51zM1198 1066 v120h48l76 -120h-124zM1406 1056l96 -54l98 -54v88h208v46h-210l-2 88l-94 -58z" />
<glyph unicode="m" d="M192 1036h210l2 -88l94 56l86 52l-2 -154h62q0 24 6 44q10 26 33 44t51 20t53 -13t37 -39q10 -22 10 -44v-12h268v4v2q0 38 27 65t66 27t66 -27t27 -65v-4v-2h104v180l-34 30l-192 18l-108 134h-38q0 2 -9 4t-9 4q0 56 -38 60h-14q-36 -4 -36 -62l-6 -2l-6 -4h-114 l-118 -118l-84 -2l-2 -76l-86 48l-98 54v-88h-208v-46zM660 902q0 -22 11 -40t29 -28t39 -10t40 10t29 28t10 40q0 16 -6 31t-17 25t-25 16t-30 6q-22 0 -40 -10t-29 -28t-11 -40zM720 1130l88 94l76 2v-98zM888 432l88 2v-210h46v210l90 2l-58 96l-56 96l-56 -98zM888 1660 l58 -96l56 -96l56 98l54 98l-88 -2v210h-46v-210zM926 936v152h148v-152h-148zM926 1126v102l120 -2l80 -100h-200zM1118 899q0 -33 23 -56t55 -23t56 23t24 56t-24 56t-56 23t-55 -23t-23 -56zM1406 1056l96 -54l98 -54v88h208v46h-210l-2 88l-94 -58z" />
<glyph unicode="n" d="M634 640q156 -112 348 -114q158 0 282 94q60 52 82 122q20 70 20 144q0 118 -68 182q-68 62 -176 90l-66 20q-36 10 -72 32q-40 20 -42 62q2 42 38 64q34 20 72 20q98 -2 172 -66l102 200q-146 80 -310 80q-152 0 -246 -90q-96 -88 -96 -242q0 -70 20 -116q18 -48 54 -78 q36 -28 86 -48q48 -22 108 -38q46 -10 100 -34q24 -12 40 -32t16 -46q-2 -52 -40 -76q-38 -26 -84 -26q-66 0 -124 32q-56 30 -106 72z" />
<glyph unicode="o" d="M760 1484h186v-304h108v304h186v88h-186v138h-108v-138h-186v-88zM772 504q96 -68 216 -70q100 0 176 58q38 34 52 78q12 44 12 90q0 74 -42 114q-42 38 -110 54l-40 14q-22 6 -46 18q-26 14 -26 40t24 40q20 12 44 12q62 0 108 -40l64 124q-92 50 -194 52 q-94 -2 -154 -58q-60 -54 -60 -150q0 -44 14 -74q10 -30 32 -48t54 -30q30 -14 68 -24q28 -6 62 -22q16 -6 26 -20q10 -12 10 -28q-2 -32 -26 -48q-22 -16 -52 -16q-42 0 -78 20q-34 18 -66 46z" />
<glyph unicode="p" d="M446 1166h1108v84q0 -24 -38 -41t-92 -17h-848q-54 0 -92 17t-38 41v-84zM446 1540q0 12 11 23t28 18t40 12t51 5h848q54 0 92 -17t38 -41v82h-1108v-82zM502 1358q0 -10 5 -18t13 -13t20 -5q14 0 25 11t11 26t-11 26t-26 11t-26 -11t-11 -27zM502 1496q0 -16 11 -27 t26 -11t26 11t11 27t-11 26t-26 10t-26 -10t-11 -26zM604 1546q0 -14 11 -25t26 -11t26 11t11 26t-11 26t-25 11q-6 0 -12 -2t-11 -5t-8 -8t-5 -11t-2 -12zM622 1273q0 -15 11 -26t26 -11t26 11t11 26t-11 26t-26 11t-26 -11t-11 -26zM622 1428q0 -8 3 -15t8 -12t12 -8 t13 -3q16 0 27 11t11 26t-11 26t-26 11t-26 -11t-11 -25zM706 1342q0 -16 11 -27t27 -11t27 11t11 27t-11 26t-27 10t-27 -10t-11 -26zM706 1496q0 -16 11 -27t27 -11t27 11t11 27t-11 26t-27 10t-27 -10t-11 -26zM772 504q96 -68 216 -70q100 0 176 58q38 34 52 78 q12 44 12 90q0 74 -42 114q-42 38 -110 54l-40 14q-22 6 -46 18q-26 14 -26 40t24 40q20 12 44 12q62 0 108 -40l64 124q-92 50 -194 52q-94 -2 -154 -58q-60 -54 -60 -150q0 -44 14 -74q10 -30 32 -48t54 -30q30 -14 68 -24q28 -6 62 -22q16 -6 26 -20q10 -12 10 -28 q-2 -32 -26 -48q-22 -16 -52 -16q-42 0 -78 20q-34 18 -66 46zM814 1292q0 -32 23 -54t57 -22h238q34 0 57 22t23 54v208q0 20 -11 38t-29 28t-40 10h-238q-34 0 -57 -22t-23 -54v-208zM852 1290v212q0 10 5 20t16 15t23 5h234q12 0 22 -5t16 -15t6 -20v-212q0 -18 -13 -30 t-31 -12h-234q-20 0 -32 12t-12 30zM1254 1342q0 -10 5 -19t13 -14t18 -5q16 0 27 11t11 27t-11 26t-26 10t-26 -10t-11 -26zM1254 1479q0 -15 11 -26t26 -11t26 11t11 26t-11 26t-26 11t-26 -11t-11 -26zM1356 1410q0 -16 11 -27t26 -11t26 11t11 27q0 10 -5 19t-13 14 t-18 5q-16 0 -27 -11t-11 -27zM1356 1530q0 -16 11 -27t26 -11t26 11t11 27q0 10 -5 18t-13 13t-18 5t-19 -5t-14 -13t-5 -18zM1374 1256q0 -10 5 -18t13 -13t18 -5q16 0 27 10t11 26t-11 27t-26 11t-26 -11t-11 -27zM1458 1308q0 -16 11 -27t27 -11t27 11t11 27q0 10 -5 18 t-14 13t-19 5q-16 0 -27 -10t-11 -26zM1458 1461q0 -15 11 -26t27 -11t27 11t11 26t-11 26t-27 11t-27 -11t-11 -26z" />
<glyph unicode="q" d="M768 1262l2 -66l144 2h34l-2 34q-2 34 -2 70q-2 26 0 54v5v5l16 -10q26 -18 56 -38q22 -16 38 -28q10 -8 12 -10v-2q0 -2 2 -16v-48l-2 -64l66 -4q2 32 2 68v50q0 12 -2 22q0 12 -4 20q-4 10 -14 20q-6 6 -18 16q-14 12 -42 32q-12 6 -32 20l40 70v-6q4 -14 14 -21t26 -9 q6 -2 18 -2h48l62 4l2 60l-66 4q-26 -2 -40 0v2v2v30v30q0 20 -6 32t-12 15t-20 8t-22 7q-12 12 -76 28l-14 2h-4q-8 0 -18 -2q-24 -2 -42 -4q-26 -6 -38 -14t-28 -28q-12 -14 -28 -34l-32 -44l54 -38q14 22 30 42q12 16 26 32q6 6 12 14h2l5 2q5 2 9 2l36 6h20l-6 -26 q-4 -20 -32 -56q-24 -32 -38 -52q-20 -30 -24 -48q-2 -14 -2 -44v-56v-16v-12t2 -10zM772 504q96 -68 216 -70q100 0 176 58q38 34 52 78q12 44 12 90q0 74 -42 114q-42 38 -110 54l-40 14q-22 6 -46 18q-26 14 -26 40t24 40q20 12 44 12q62 0 108 -40l64 124 q-92 50 -194 52q-94 -2 -154 -58q-60 -54 -60 -150q0 -44 14 -74q10 -30 32 -48t54 -30q30 -14 68 -24q28 -6 62 -22q16 -6 26 -20q10 -12 10 -28q-2 -32 -26 -48q-22 -16 -52 -16q-42 0 -78 20q-34 18 -66 46zM1036 1696q0 -28 20 -48t50 -20q18 0 34 9t25 25t9 34 q0 28 -20 49t-49 21t-49 -21t-20 -49z" />
<glyph unicode="r" d="M96 1048q0 -184 71 -351t193 -289t289 -193t351 -71t351 71t289 193t193 289t71 351t-71 351t-193 289t-289 193t-351 71t-351 -71t-289 -193t-193 -289t-71 -351zM188 1048q0 74 13 146t38 138t60 127t80 113t97 97t113 80t127 60t138 38t146 13q166 0 316 -64t259 -173 t173 -259t64 -316q0 -220 -108 -408t-296 -296t-408 -108t-408 108t-296 296t-108 408z" />
<glyph unicode="s" d="M280 1030h186l2 -72l84 52l86 50l-86 50l-88 48l2 -68h-186v-60zM694 1048q0 -130 90 -221t216 -91t216 91t90 221q0 64 -25 123t-66 100t-97 65t-118 24q-82 0 -152 -41t-112 -113t-42 -158zM786 1048q0 56 27 103t77 76t110 29t110 -29t77 -76t27 -103q0 -84 -62 -146 t-152 -62q-44 0 -85 17t-69 45t-44 66t-16 80zM900 500h72v-186h56v188h72l-52 86l-50 84l-50 -86zM900 1594l52 -86l50 -84l50 86l48 86h-72v186h-56v-188h-72zM1362 1056l86 -50l88 -48l-2 70h186v58h-186l-2 72l-84 -52z" />
<glyph unicode="t" d="M400 768l2 -100l216 4h52l-2 50q-4 52 -4 106v82v8v6l24 -16q42 -26 84 -56q34 -24 58 -42q14 -12 18 -16q2 -8 2 -26q1 -17 1 -35t-1 -37l-2 -98l102 -4q2 48 2 100v78q-2 18 -2 32q-2 18 -8 30q-6 16 -22 32q-8 8 -26 22q-22 18 -64 48q-16 10 -48 32l60 104q2 -6 2 -8 q6 -20 20 -32q8 -6 14 -10t10 -4h7h7q12 -2 30 -2q18 -1 35.5 -1t34.5 1l94 4l2 92l-100 4h-60v4v4v44v46q0 30 -9 48t-18 23t-30 11t-33 12q-18 18 -114 40q-6 4 -28 4q-12 0 -26 -2q-38 -4 -62 -8q-40 -6 -58 -20q-18 -12 -44 -40q-18 -22 -40 -52l-48 -68l80 -56 q22 30 46 64q18 22 38 46q4 6 9 11l8 8t4 3t8 3t13 3q18 4 56 8q2 0 28 2l-8 -42q-8 -30 -48 -82q-38 -50 -56 -78q-30 -46 -36 -74q-4 -20 -5 -66t-1 -84q2 -14 2 -23v-19v-16zM804 1422q0 -44 30 -74t74 -30t74 30t30 74t-30 74t-74 30t-74 -30t-30 -74zM1166 616h394v874 h-394v-874z" />
<glyph unicode="u" d="M416 1016q48 -4 96 -6h72q18 2 28 2q4 0 8 1t7 1t10 3t15 11q14 12 20 32q0 2 2 8l60 -106q-32 -20 -48 -32q-44 -30 -66 -48q-18 -14 -26 -22q-16 -16 -22 -32q-4 -12 -6 -30q-2 -14 -2 -32q-2 -36 -2 -78l4 -102l102 4q-2 48 -4 98q0 40 2 72v26v2q4 4 20 16 q22 18 58 44l84 56l24 14q0 -2 1 -6t1 -6v-84l-4 -106l-2 -52h50l220 -2v98l-168 4l1 20t1 38q1 25 1 55v30q-1 47 -5 67q-6 26 -36 74q-18 28 -56 78q-42 54 -50 84l-8 42q24 -2 28 -2q38 -4 56 -8q6 0 14 -3l8 -3l4 -3q4 -3 8 -8t10 -11q20 -24 38 -48l46 -62l82 56 q-22 32 -48 68q-24 30 -42 52q-26 28 -44 40q-18 14 -58 20q-26 6 -64 10h-26l-28 -4q-96 -22 -116 -40q-10 -4 -26 -9t-25 -9t-19 -12t-15 -24t-5 -40v-48q2 -22 0 -42v-5v-5q-24 0 -60 2l-100 -4v-94zM502 1422q0 -22 8 -41t22 -34t34 -23t40 -8q44 0 75 31t31 74t-31 74 t-74 31t-74 -31t-31 -73zM1186 608h398v882h-398v-882z" />
<glyph unicode="v" d="M562 560h254v400h368v-400h254v976h-254v-376h-368v376h-254v-976z" />
<glyph unicode="w" d="M454 1506l24 -996h100v1002zM604 926q18 4 45 11t97 18t118 11t134 -15t173 -31t133 -16q32 0 68 4t66 12t55 16t39 12l14 6v616q-128 -50 -242 -58h-6q-58 0 -197 36q-147 38 -207 38q-56 0 -128 -17t-116 -33l-46 -18v-592zM788 1248q0 46 12 78q12 34 33 57t51 37 q30 12 62 12q36 0 62 -10q24 -12 46 -30l-42 -48q-14 12 -28 19t-34 7q-18 0 -30 -7t-23 -22t-17 -37q-4 -20 -4 -56q0 -32 4 -52q6 -22 16 -37t24 -23q12 -6 28 -6q26 0 42 8q14 8 30 22l38 -48q-18 -20 -46 -33t-68 -13q-34 0 -64 12q-28 12 -48 35t-32 57t-12 78z M1094 1074v348h108q70 0 110 -28t40 -86q0 -30 -10 -52t-28 -36q-18 -16 -44 -23t-56 -7h-38v-116h-82zM1176 1250h30q30 0 45 14t15 44q0 54 -62 56h-28v-114z" />
<glyph unicode="x" d="M302 814q90 -64 200 -64h7q88 0 155 52q34 30 46 71t12 83q0 68 -40 104q-38 36 -100 50l-38 12q-20 6 -40 18q-24 12 -24 36t22 36q18 12 40 12q56 0 98 -38l60 114q-84 46 -178 48q-88 -2 -140 -52q-56 -50 -56 -140q0 -40 12 -66q10 -28 30 -44t50 -28q28 -12 62 -22 q26 -6 56 -20q14 -6 23 -17t9 -27q0 -30 -22 -44t-48 -14q-38 0 -70 18q-34 18 -62 42zM748 1208h122v-444h148v444h122v112l200 -284v-272h148v272l210 296h-178l-106 -154l-106 154h-168h-10h-382v-124z" />
<glyph unicode="y" d="M398 606q78 -54 172 -56q78 0 140 46q30 26 40 61t10 71q0 58 -34 90q-34 30 -86 44l-32 10q-18 4 -36 16q-20 10 -22 30q2 22 20 32q16 10 36 10q48 -2 84 -32l50 98q-72 40 -154 40q-74 0 -120 -44q-48 -44 -48 -120q0 -34 10 -58t27 -38t43 -24q24 -10 52 -18 q24 -6 50 -18q12 -6 20 -15t8 -23q0 -26 -20 -38q-18 -12 -42 -12q-32 0 -60 16q-28 14 -54 34zM696 1514q0 -30 12 -59t34 -50t50 -33q30 -106 102 -172t162 -66q96 0 163 73t75 163q10 116 10 120q0 38 -6 75t-29 70t-59 33l-322 -6q-20 6 -40 6q-16 0 -38 -6h-4 q-48 -14 -79 -55t-31 -93zM770 1514q0 18 7 33t18 26t26 18t33 7q34 0 59 -25t25 -59q0 -22 -11 -42t-31 -31t-42 -11q-34 0 -59 25t-25 59zM782 946h106v-382h128v382h104v96l174 -244v-234h128v234l180 254h-154l-90 -132l-92 132h-146h-8h-330v-106zM1082 1458v30 q0 12 12 12h158q12 0 12 -12v-30q0 -14 -12 -14h-158q-12 0 -12 14z" />
<glyph unicode="z" d="M398 606q78 -54 172 -56q78 0 140 46q30 26 40 61t10 71q0 58 -34 90q-34 30 -86 44l-32 10q-18 4 -36 16q-20 10 -22 30q2 22 20 32q16 10 36 10q48 -2 84 -32l50 98q-72 40 -154 40q-74 0 -120 -44q-48 -44 -48 -120q0 -34 10 -58t27 -38t43 -24q24 -10 52 -18 q24 -6 50 -18q12 -6 20 -15t8 -23q0 -26 -20 -38q-18 -12 -42 -12q-32 0 -60 16q-28 14 -54 34zM668 1312q0 -46 6 -62q22 -30 64 -44q16 -4 79 -4t67 -10q26 -24 44 -32q12 -4 46 -4h26h26q34 0 46 4q16 8 44 32q8 8 36 9t61 1t49 4q42 14 64 44q6 16 6 62t-4 62 q-6 16 -16 30t-29 27t-28 19t-36 19t-29 13q-8 4 -14 18t-12 34t-10 30l-6 12q-20 40 -31 61t-33 48t-46 43q-4 2 -22 4h-16h-16q-18 -2 -22 -4q-28 -16 -51 -48t-32 -49t-33 -67q-4 -10 -10 -30t-13 -34t-13 -18q-8 -2 -23 -10t-24 -12t-22 -12t-22 -15t-19 -16t-17 -20 t-11 -23q-4 -16 -4 -62zM782 946h106v-382h128v382h104v96l174 -244v-234h128v234l180 254h-154l-90 -132l-92 132h-146h-8h-330v-106zM890 1266v138q42 -34 112 -34q86 0 124 46v-152q-40 -64 -118 -64q-76 0 -118 66zM968 1458v200q0 6 6 6h60q6 0 6 -6v-200q0 -6 -6 -6 h-60q-6 0 -6 6z" />
<glyph unicode="&#x2000;" horiz-adv-x="1024" />
<glyph unicode="&#x2001;" />
<glyph unicode="&#x2002;" horiz-adv-x="1024" />
<glyph unicode="&#x2003;" />
<glyph unicode="&#x2004;" horiz-adv-x="682" />
<glyph unicode="&#x2005;" horiz-adv-x="512" />
<glyph unicode="&#x2006;" horiz-adv-x="341" />
<glyph unicode="&#x2007;" horiz-adv-x="341" />
<glyph unicode="&#x2008;" horiz-adv-x="256" />
<glyph unicode="&#x2009;" horiz-adv-x="409" />
<glyph unicode="&#x200a;" horiz-adv-x="113" />
<glyph unicode="&#x202f;" horiz-adv-x="409" />
<glyph unicode="&#x205f;" horiz-adv-x="512" />
<glyph unicode="&#xe000;" horiz-adv-x="1350" d="M0 0v1350h1350v-1350h-1350z" />
</font>
</defs>
</svg>
